<svg width="30" height="24" viewBox="0 0 30 24" fill="none" xmlns="http://www.w3.org/2000/svg">
<path d="M14.074 18.8886C13.454 19.3086 12.674 19.6586 11.724 19.9686L10.144 20.4886C6.17402 21.7686 4.08401 20.6986 2.79401 16.7286L1.51401 12.7786C0.234013 8.80857 1.29401 6.70857 5.26401 5.42857L6.84401 4.90857C7.25401 4.77857 7.64401 4.66857 8.01401 4.59857C7.71401 5.20857 7.47401 5.94857 7.27401 6.79857L6.29401 10.9886C5.31401 15.1686 6.60402 17.2286 10.774 18.2186L12.454 18.6186C13.034 18.7586 13.574 18.8486 14.074 18.8886Z" stroke="#9DACC8" stroke-width="1.5" stroke-linecap="round" stroke-linejoin="round"/>
<path d="M14.074 18.8886C13.454 19.3086 12.674 19.6586 11.724 19.9686L10.144 20.4886C6.17402 21.7686 4.08401 20.6986 2.79401 16.7286L1.51401 12.7786C0.234013 8.80857 1.29401 6.70857 5.26401 5.42857L6.84401 4.90857C7.25401 4.77857 7.64401 4.66857 8.01401 4.59857C7.71401 5.20857 7.47401 5.94857 7.27401 6.79857L6.29401 10.9886C5.31401 15.1686 6.60402 17.2286 10.774 18.2186L12.454 18.6186C13.034 18.7586 13.574 18.8486 14.074 18.8886Z" stroke="#9DACC8" stroke-width="1.5" stroke-linecap="round" stroke-linejoin="round"/>
<path d="M14.8862 19.483C14.1468 19.6015 13.292 19.5888 12.3 19.468L10.6483 19.2712C6.50944 18.7524 5.06791 16.899 5.57759 12.7559L6.08788 8.6352C6.60662 4.49635 8.45517 3.04154 12.594 3.56028L14.2457 3.75715C14.6722 3.81271 15.0722 3.87793 15.4371 3.97095C14.9073 4.39688 14.3769 4.96599 13.8362 5.6517L11.1764 9.03429C8.52086 12.4078 8.81881 14.8201 12.1791 17.4805L13.5324 18.5533C13.9988 18.9255 14.4501 19.2354 14.8862 19.483Z" stroke="#9DACC8" stroke-width="1.5" stroke-linecap="round" stroke-linejoin="round"/>
<path d="M25.2114 14.6219L22.5903 18.0223C20.3324 20.9617 18.2172 21.6044 15.5006 20.0408C15.062 19.7976 14.6075 19.4923 14.1374 19.125L12.7732 18.0659C9.38606 15.4399 9.06357 13.0308 11.6846 9.63041L14.3099 6.22089C14.8435 5.52971 15.3681 4.95523 15.8935 4.52393C17.9596 2.80452 20.0403 3.03577 22.7545 5.13644L24.1137 6.18222C27.5232 8.80743 27.8324 11.2215 25.2114 14.6219Z" stroke="#9DACC8" stroke-width="1.5" stroke-linecap="round" stroke-linejoin="round"/>
<path d="M18.6075 9.99768L21.8357 12.5625" stroke="#9DACC8" stroke-width="1.5" stroke-linecap="round" stroke-linejoin="round"/>
<path d="M16.3032 13.1662L18.6374 15.0394" stroke="#9DACC8" stroke-width="1.5" stroke-linecap="round" stroke-linejoin="round"/>
</svg>
