<svg width="24" height="24" viewBox="0 0 24 24" fill="none" xmlns="http://www.w3.org/2000/svg">
<path d="M9.81001 5.32656H9.81V5.33V7.23C9.81 8.1942 9.55711 8.80723 9.18217 9.18217C8.80723 9.55711 8.1942 9.81 7.23 9.81H5.33C4.3658 9.81 3.75277 9.55711 3.37783 9.18217C3.00289 8.80723 2.75 8.1942 2.75 7.23V5.33C2.75 4.36581 3.00287 3.7532 3.37849 3.37842C3.75438 3.00336 4.36992 2.75 5.34 2.75H7.24C8.20447 2.75 8.81694 3.00301 9.19033 3.37724C9.56342 3.75116 9.81443 4.363 9.81001 5.32656Z" stroke="#9DACC8" stroke-width="1.5"/>
<path d="M16.77 2.75H18.67C19.6342 2.75 20.2472 3.00289 20.6222 3.37783C20.9971 3.75277 21.25 4.3658 21.25 5.33V7.23C21.25 8.1942 20.9971 8.80723 20.6222 9.18217C20.2472 9.55711 19.6342 9.81 18.67 9.81H16.77C15.8058 9.81 15.1928 9.55711 14.8178 9.18217C14.4429 8.80723 14.19 8.1942 14.19 7.23V5.33C14.19 4.3658 14.4429 3.75277 14.8178 3.37783C15.1928 3.00289 15.8058 2.75 16.77 2.75Z" stroke="#9DACC8" stroke-width="1.5"/>
<path d="M16.77 14.18H18.67C19.6342 14.18 20.2472 14.4329 20.6222 14.8078C20.9971 15.1828 21.25 15.7958 21.25 16.76V18.66C21.25 19.6242 20.9971 20.2372 20.6222 20.6122C20.2472 20.9871 19.6342 21.24 18.67 21.24H16.77C15.8058 21.24 15.1928 20.9871 14.8178 20.6122C14.4429 20.2372 14.19 19.6242 14.19 18.66V16.76C14.19 15.7958 14.4429 15.1828 14.8178 14.8078C15.1928 14.4329 15.8058 14.18 16.77 14.18Z" stroke="#9DACC8" stroke-width="1.5"/>
<path d="M9.81001 16.7666H9.81V16.77V18.67C9.81 19.6342 9.55711 20.2472 9.18217 20.6222C8.80723 20.9971 8.1942 21.25 7.23 21.25H5.33C4.36581 21.25 3.7532 20.9971 3.37842 20.6215C3.00336 20.2456 2.75 19.6301 2.75 18.66V16.76C2.75 15.7958 3.00287 15.1832 3.37849 14.8084C3.75438 14.4334 4.36992 14.18 5.34 14.18H7.24C8.20446 14.18 8.8165 14.433 9.18974 14.8079C9.56295 15.1828 9.81444 15.7971 9.81001 16.7666Z" stroke="#9DACC8" stroke-width="1.5"/>
</svg>
