<svg width="24" height="24" viewBox="0 0 24 24" fill="none" xmlns="http://www.w3.org/2000/svg">
<path d="M3 22H21" stroke="#9DACC8" stroke-width="1.5" stroke-linecap="round" stroke-linejoin="round"/>
<path d="M5.59998 8.38H4C3.45 8.38 3 8.83 3 9.38V18C3 18.55 3.45 19 4 19H5.59998C6.14998 19 6.59998 18.55 6.59998 18V9.38C6.59998 8.83 6.14998 8.38 5.59998 8.38Z" stroke="#9DACC8" stroke-width="1.5" stroke-linecap="round" stroke-linejoin="round"/>
<path d="M12.8 5.19H11.2C10.65 5.19 10.2 5.64 10.2 6.19V18C10.2 18.55 10.65 19 11.2 19H12.8C13.35 19 13.8 18.55 13.8 18V6.19C13.8 5.64 13.35 5.19 12.8 5.19Z" stroke="#9DACC8" stroke-width="1.5" stroke-linecap="round" stroke-linejoin="round"/>
<path d="M20 2H18.4C17.85 2 17.4 2.45 17.4 3V18C17.4 18.55 17.85 19 18.4 19H20C20.55 19 21 18.55 21 18V3C21 2.45 20.55 2 20 2Z" stroke="#9DACC8" stroke-width="1.5" stroke-linecap="round" stroke-linejoin="round"/>
</svg>
