<svg width="24" height="24" viewBox="0 0 24 24" fill="none" xmlns="http://www.w3.org/2000/svg">
<path d="M21.66 10.44L20.68 14.62C19.84 18.23 18.18 19.69 15.06 19.39C14.56 19.35 14.02 19.26 13.44 19.12L11.76 18.72C7.59 17.73 6.3 15.67 7.28 11.49L8.26 7.29999C8.46 6.44999 8.7 5.70999 9 5.09999C10.17 2.67999 12.16 2.02999 15.5 2.81999L17.17 3.20999C21.36 4.18999 22.64 6.25999 21.66 10.44Z" stroke="#9DACC8" stroke-width="1.5" stroke-linecap="round" stroke-linejoin="round"/>
<path d="M15.06 19.39C14.44 19.81 13.66 20.16 12.71 20.47L11.13 20.99C7.15998 22.27 5.06997 21.2 3.77997 17.23L2.49997 13.28C1.21997 9.31001 2.27997 7.21001 6.24997 5.93001L7.82997 5.41001C8.23997 5.28001 8.62997 5.17001 8.99997 5.10001C8.69997 5.71001 8.45997 6.45001 8.25997 7.30001L7.27997 11.49C6.29997 15.67 7.58998 17.73 11.76 18.72L13.44 19.12C14.02 19.26 14.56 19.35 15.06 19.39Z" stroke="#9DACC8" stroke-width="1.5" stroke-linecap="round" stroke-linejoin="round"/>
<path d="M12.64 8.53L17.49 9.76" stroke="#9DACC8" stroke-width="1.5" stroke-linecap="round" stroke-linejoin="round"/>
<path d="M11.66 12.4L14.56 13.14" stroke="#9DACC8" stroke-width="1.5" stroke-linecap="round" stroke-linejoin="round"/>
</svg>
