<svg width="24" height="24" viewBox="0 0 24 24" fill="none" xmlns="http://www.w3.org/2000/svg">
<path d="M3 9.11V14.88C3 17 3 17 5 18.35L10.5 21.53C11.33 22.01 12.68 22.01 13.5 21.53L19 18.35C21 17 21 17 21 14.89V9.11C21 7 21 7 19 5.65L13.5 2.47C12.68 1.99 11.33 1.99 10.5 2.47L5 5.65C3 7 3 7 3 9.11Z" stroke="#9DACC8" stroke-width="1.5" stroke-linecap="round" stroke-linejoin="round"/>
<path d="M12 15C13.6569 15 15 13.6569 15 12C15 10.3431 13.6569 9 12 9C10.3431 9 9 10.3431 9 12C9 13.6569 10.3431 15 12 15Z" stroke="#9DACC8" stroke-width="1.5" stroke-linecap="round" stroke-linejoin="round"/>
</svg>
